<?xml version="1.0" encoding="UTF-8" standalone="no"?>
<!-- Created with Inkscape (http://www.inkscape.org/) -->

<svg
   width="210mm"
   height="297mm"
   viewBox="0 0 210 297"
   version="1.1"
   id="svg5"
   inkscape:version="1.1 (c68e22c387, 2021-05-23)"
   xmlns:inkscape="http://www.inkscape.org/namespaces/inkscape"
   xmlns:sodipodi="http://sodipodi.sourceforge.net/DTD/sodipodi-0.dtd"
   xmlns="http://www.w3.org/2000/svg"
   xmlns:svg="http://www.w3.org/2000/svg">
  <sodipodi:namedview
     id="namedview7"
     pagecolor="#ffffff"
     bordercolor="#666666"
     borderopacity="1.0"
     inkscape:pageshadow="2"
     inkscape:pageopacity="0.0"
     inkscape:pagecheckerboard="0"
     inkscape:document-units="mm"
     showgrid="false"
     inkscape:snap-bbox="false"
     inkscape:bbox-paths="false"
     inkscape:snap-others="false"
     inkscape:zoom="0.33540614"
     inkscape:cx="-538.15353"
     inkscape:cy="49.19409"
     inkscape:window-width="1680"
     inkscape:window-height="987"
     inkscape:window-x="-8"
     inkscape:window-y="16"
     inkscape:window-maximized="1"
     inkscape:current-layer="layer1" />
  <defs
     id="defs2" />
  <g
     inkscape:label="Livello 1"
     inkscape:groupmode="layer"
     id="layer1">
    <path
       style="fill:#000000;stroke-width:0.352778"
       d="m 131.91447,204.72746 c -2.50807,-0.61982 -3.92991,-1.44963 -6.20945,-3.62394 -6.7209,-6.41065 -5.10433,-17.5957 3.14743,-21.77718 6.72761,-3.40914 14.75727,-0.71453 18.21723,6.11338 4.0525,7.99721 -0.84548,17.75409 -9.76142,19.44496 -2.22239,0.42147 -3.1631,0.39405 -5.39379,-0.15722 z m 6.10225,-7.31604 c 1.73789,-0.8413 3.37476,-3.0522 3.75318,-5.06938 0.78267,-4.17198 -3.63092,-8.47999 -7.94167,-7.75169 -2.96669,0.50122 -5.6271,3.68863 -5.61017,6.72148 0.009,1.64786 0.99496,3.97038 2.15696,5.08195 1.973,1.88737 5.00971,2.29176 7.6417,1.01764 z m -4.76019,-3.44642 c -2.20363,-1.37298 -1.76236,-4.95523 0.69086,-5.60839 2.2472,-0.5983 4.1407,0.76939 4.1407,2.99086 0,2.47111 -2.71009,3.93931 -4.83156,2.61753 z m -49.360792,8.11402 c -1.715259,-0.77893 -3.097981,-2.4795 -3.610431,-4.44037 -0.202827,-0.77611 -0.537338,-3.63361 -0.743358,-6.35 -0.352664,-4.64991 -1.420419,-17.2756 -2.640346,-31.22084 -0.949514,-10.85409 -1.965498,-22.91177 -2.511777,-29.80972 -0.291952,-3.68653 -0.684147,-8.36965 -0.871544,-10.40694 -0.187397,-2.03729 -0.340854,-4.22011 -0.341016,-4.8507 l -2.95e-4,-1.14653 h 34.395839 c 31.22892,0 34.39583,0.0517 34.39583,0.56189 0,0.30903 -0.16185,2.41247 -0.35967,4.6743 -0.19782,2.26184 -0.76273,9.11305 -1.25534,15.22493 -0.49262,6.11187 -1.11816,13.81125 -1.39009,17.10972 -1.30549,15.83494 -1.58101,19.52934 -1.58101,21.19952 v 1.80376 l -3.35597,0.20022 c -2.98229,0.17793 -3.68356,0.35878 -6.29806,1.62427 -6.7966,3.28975 -10.62655,10.50598 -9.43132,17.77015 0.43733,2.65793 1.61571,5.64509 2.84173,7.20373 0.39148,0.49769 0.6252,1.04498 0.51938,1.2162 -0.10723,0.17351 -8.1866,0.30789 -18.25144,0.30357 -16.875132,-0.007 -18.154242,-0.051 -19.511112,-0.66716 z M 67.99656,110.32368 c -1.159255,-0.46707 -1.522367,-1.46136 -1.522367,-4.16859 0,-1.89005 0.154875,-2.64483 0.674341,-3.28639 l 0.674341,-0.83283 39.388545,-0.0927 39.38855,-0.0927 1.03572,1.03572 c 0.93824,0.93824 1.03573,1.25667 1.03573,3.38306 0,2.12405 -0.0981,2.44542 -1.0312,3.37853 l -1.03119,1.03119 -38.92089,-0.0224 c -21.536802,-0.0124 -39.265121,-0.16106 -39.69158,-0.33289 z m 3.86017,-13.974663 c 0.197114,-2.455634 0.763651,-3.567544 2.464877,-4.837694 0.866758,-0.64712 1.505935,-0.68768 10.208761,-0.6478 5.106263,0.0234 9.459753,-0.0726 9.674423,-0.21339 0.21467,-0.14077 0.4742,-1.32746 0.57673,-2.6371 0.20814,-2.65871 0.81504,-3.84398 2.49171,-4.86631 1.04145,-0.63501 1.83091,-0.68749 10.360699,-0.68871 l 9.23336,-10e-4 1.13336,0.95367 c 1.46466,1.23243 2.09577,2.78955 2.09577,5.17087 0,1.41976 0.14406,1.96915 0.55802,2.128 0.30691,0.11777 4.72843,0.21413 9.82561,0.21413 9.0311,0 9.29726,0.0203 10.43044,0.79375 1.61606,1.1031 2.46926,2.86868 2.46926,5.109774 v 1.85759 H 107.52451 71.669262 Z m 44.35882,-7.441714 c 2.5e-4,-1.45798 -0.14126,-1.91544 -0.68205,-2.20486 -0.40777,-0.21823 -3.6414,-0.36519 -8.03539,-0.36519 -8.593509,0 -8.921139,0.0969 -8.921139,2.63997 0,1.16549 0.15063,1.58488 0.61737,1.71892 0.33954,0.0975 4.308149,0.14884 8.819129,0.11406 l 8.20177,-0.0632 z"
       id="path21" />
  </g>
</svg>
